<svg xmlns="http://www.w3.org/2000/svg" width="14" height="14" viewBox="0 0 14 14" fill="none">
<path d="M5.68886 10.1285L9.6283 6.18903L8.75362 5.31435L5.68886 8.37911L4.19716 6.88741L3.33605 7.76209L5.68886 10.1285ZM6.51203 13.1864C5.72451 13.1864 4.98429 13.038 4.29137 12.741C3.59844 12.4441 2.99402 12.0372 2.4781 11.5204C1.96218 11.0036 1.55581 10.3999 1.25898 9.70946C0.96214 9.019 0.813721 8.28039 0.813721 7.49361C0.813721 6.69705 0.962199 5.95231 1.25916 5.25939C1.55611 4.56646 1.96228 3.96293 2.47767 3.44881C2.99306 2.93467 3.59632 2.52829 4.28744 2.22967C4.97856 1.93105 5.71789 1.78174 6.50541 1.78174C7.30273 1.78174 8.04841 1.93129 8.74246 2.2304C9.4365 2.52951 10.0402 2.93544 10.5536 3.44821C11.067 3.96096 11.4729 4.56337 11.7711 5.25544C12.0693 5.9475 12.2184 6.69235 12.2184 7.49C12.2184 8.27876 12.0691 9.01953 11.7703 9.71231C11.4716 10.4051 11.0647 11.0089 10.5497 11.5237C10.0346 12.0385 9.4319 12.4444 8.74144 12.7412C8.05098 13.038 7.30785 13.1864 6.51203 13.1864Z" fill="#0A2540"/>
</svg>