<svg fill="none" height="512" viewBox="0 0 24 24" width="512" xmlns="http://www.w3.org/2000/svg"><g fill="rgb(0,0,0)"><path d="m16.3999 19.62h-10c-.99456 0-1.94839-.3951-2.65165-1.0984-.70326-.7032-1.09835-1.657-1.09835-2.6516v-2.5c0-.1989.07902-.3897.21967-.5303.14066-.1407.33142-.2197.53033-.2197.19892 0 .38968.079.53033.2197.14066.1406.21967.3314.21967.5303v2.5c0 .5967.23706 1.169.65901 1.591.42196.4219.99426.659 1.59099.659h10c.5967 0 1.169-.2371 1.591-.659.4219-.422.659-.9943.659-1.591v-2.5c0-.1989.079-.3897.2197-.5303.1406-.1407.3314-.2197.5303-.2197s.3897.079.5303.2197c.1407.1406.2197.3314.2197.5303v2.5c0 .9946-.3951 1.9484-1.0984 2.6516-.7032.7033-1.657 1.0984-2.6516 1.0984z"/><path d="m11.3999 14.88c-.1989 0-.3897-.079-.5303-.2197-.1407-.1406-.2197-.3314-.2197-.5303v-9c0-.19891.079-.38967.2197-.53033.1406-.14065.3314-.21967.5303-.21967s.3897.07902.5303.21967c.1407.14066.2197.33142.2197.53033v9c-.0026.1981-.0824.3874-.2225.5275s-.3294.2199-.5275.2225z"/><path d="m11.3999 16.12c-.0986.001-.1964-.0179-.2875-.0557s-.1736-.0937-.2425-.1643l-4.23999-4.24c-.07075-.0689-.12699-.1514-.16539-.2424s-.05818-.1888-.05818-.2876.01978-.1966.05818-.2876.09464-.1734.16539-.2424c.14063-.1404.33125-.2193.53-.2193s.38938.0789.53.2193l3.70999 3.71 3.71-3.71c.0687-.0737.1515-.1328.2435-.1738s.1913-.063.292-.0648.2007.0168.2941.0545.1782.0938.2494.1651c.0713.0712.1274.156.1651.2494s.0563.1934.0545.2941-.0238.2-.0648.292-.1001.1748-.1738.2435l-4.24 4.24c-.0692.0701-.1518.1257-.2428.1635s-.1887.057-.2872.0565z"/></g></svg>