<svg xmlns="http://www.w3.org/2000/svg" height="48" viewBox="0 -960 960 960" width="48"><path d="M338-105H177q-28.725 0-50.863-22.137Q104-149.275 104-178v-303q0-77.971 29.705-146.067 29.704-68.095 80.5-119.014Q265-797 333.703-826.5t146.5-29.5q77.797 0 146.424 29.39 68.627 29.389 119.5 80.5Q797-695 826.5-626.956 856-558.913 856-481v303q0 28.725-22.138 50.863Q811.725-105 783-105H622v-321h161v-55q0-126.357-88.5-214.179Q605.999-783 479.821-783t-214.5 87.821Q177-607.357 177-481v55h161v321Zm-73-248h-88v175h88v-175Zm430 0v175h88v-175h-88Zm0 0h88-88Zm-430 0h-88 88Z"/></svg>