<svg height="511pt" viewBox="1 -78 511.9995 511" width="511pt" xmlns="http://www.w3.org/2000/svg" id="fi_1442625"><path d="m302.691406 274.90625c7.8125 7.808594 7.8125 20.476562 0 28.289062-69.160156 69.160157-181.679687 69.144532-250.828125 0-69.152343-69.15625-69.152343-181.675781 0-250.832031 69.152344-69.152343 181.675781-69.152343 250.828125 0 7.8125 7.8125 7.8125 20.480469 0 28.289063-7.8125 7.8125-20.476562 7.8125-28.289062 0-53.554688-53.554688-140.695313-53.554688-194.25 0-53.554688 53.554687-53.554688 140.695312 0 194.253906 53.558594 53.550781 140.695312 53.550781 194.25-.003906 7.8125-7.808594 20.476562-7.808594 28.289062.003906zm209.308594-97.125v78.679688c0 11.046874-8.957031 20-20.003906 20s-20.003906-8.953126-20.003906-20v-58.679688h-38.671876v58.679688c0 11.046874-8.957031 20-20.003906 20s-20.003906-8.953126-20.003906-20v-58.679688h-139.59375c-8.878906 33.914062-39.78125 59.011719-76.441406 59.011719-43.566406 0-79.011719-35.445313-79.011719-79.011719 0-43.570312 35.445313-79.015625 79.011719-79.015625 36.660156 0 67.5625 25.097656 76.441406 59.011719h238.277344c11.046875 0 20.003906 8.953125 20.003906 20.003906zm-295.714844 0c0-21.511719-17.5-39.007812-39.007812-39.007812-21.507813 0-39.003906 17.496093-39.003906 39.007812 0 21.507812 17.496093 39.003906 39.003906 39.003906 21.507812 0 39.007812-17.496094 39.007812-39.003906zm0 0"></path></svg>