<?xml version="1.0" encoding="UTF-8"?>
<svg id="Layer_2" data-name="Layer 2" xmlns="http://www.w3.org/2000/svg" viewBox="0 0 274 228.62">
  <defs>
    <style>
      .cls-1 {
        fill: #1b1c1e;
        stroke-width: 0px;
      }
    </style>
  </defs>
  <g id="Layer_1-2" data-name="Layer 1">
    <path class="cls-1" d="m271.69,110.67h-24.22C247.47,49.55,197.92,0,136.8,0S26.13,49.55,26.13,110.67H2.31c-1.68,0-2.79,1.73-2.11,3.26,4.97,11.09,13.87,21.4,30.85,30.14,1.99,6.66,4.55,13.13,7.62,19.33-15.33-.02-27.18-9.98-33.75-13.89-1.9-1.13-4.47.97-3.31,2.86,7.31,11.91,15.44,23.36,24.88,33.69,18.29,20.01,41.23,33.71,67.91,39.07,18.87,3.79,39.5,4.71,58.53,1.69,10.3-1.64,20.34-4.93,29.64-9.65,10.88-5.51,20.8-12.87,29.39-21.53,8.68-8.76,16.02-18.84,21.73-29.78,3.6-6.89,6.55-14.12,8.79-21.56,17.29-8.78,26.31-19.18,31.33-30.37.68-1.53-.43-3.26-2.11-3.26Zm-97.24,5.51c0,8.22-.98,14.97-2.92,20.24-1.95,5.26-5.33,9.74-10.12,13.41-4.8,3.68-10.22,6.13-16.28,7.36v-12.55c4.33-2.45,6.78-5.73,7.35-9.85h-7.35v-34.29h29.32v15.69Zm41.65,0c0,8.22-.97,14.97-2.92,20.24-1.94,5.26-5.32,9.74-10.11,13.41-4.8,3.68-10.23,6.13-16.29,7.36v-12.55c4.33-2.45,6.78-5.73,7.36-9.85h-7.36v-34.29h29.32v15.69Z"/>
  </g>
</svg>