<?xml version="1.0" encoding="UTF-8"?>
<svg id="Layer_2" data-name="Layer 2" xmlns="http://www.w3.org/2000/svg" viewBox="0 0 1203.14 228.62">
  <defs>
    <style>
      .cls-1 {
        fill: #1b1c1e;
        stroke-width: 0px;
      }
    </style>
  </defs>
  <g id="Layer_1-2" data-name="Layer 1">
    <g>
      <path class="cls-1" d="m271.69,110.67h-24.22C247.47,49.55,197.92,0,136.8,0S26.13,49.55,26.13,110.67H2.31c-1.68,0-2.79,1.73-2.11,3.26,4.97,11.09,13.87,21.4,30.85,30.14,1.99,6.66,4.55,13.13,7.62,19.33-15.33-.02-27.18-9.98-33.75-13.89-1.9-1.13-4.47.97-3.31,2.86,7.31,11.91,15.44,23.36,24.88,33.69,18.29,20.01,41.23,33.71,67.91,39.07,18.87,3.79,39.5,4.71,58.53,1.69,10.3-1.64,20.34-4.93,29.64-9.65,10.88-5.51,20.8-12.87,29.39-21.53,8.68-8.76,16.02-18.84,21.73-29.78,3.6-6.89,6.55-14.12,8.79-21.56,17.29-8.78,26.31-19.18,31.33-30.37.68-1.53-.43-3.26-2.11-3.26Zm-97.24,5.51c0,8.22-.98,14.97-2.92,20.24-1.95,5.26-5.33,9.74-10.12,13.41-4.8,3.68-10.22,6.13-16.28,7.36v-12.55c4.33-2.45,6.78-5.73,7.35-9.85h-7.35v-34.29h29.32v15.69Zm41.65,0c0,8.22-.97,14.97-2.92,20.24-1.94,5.26-5.32,9.74-10.11,13.41-4.8,3.68-10.23,6.13-16.29,7.36v-12.55c4.33-2.45,6.78-5.73,7.36-9.85h-7.36v-34.29h29.32v15.69Z"/>
      <g>
        <g>
          <path class="cls-1" d="m383.36,91.09c5.21,2.72,9.31,6.24,12.31,10.56v-13.14h23.45v92.81c0,8.54-1.72,16.16-5.16,22.87-3.44,6.71-8.59,12.03-15.47,15.97-6.88,3.93-15.19,5.9-24.95,5.9-13.08,0-23.81-3.05-32.18-9.15-8.37-6.1-13.11-14.42-14.22-24.95h23.12c1.22,4.21,3.85,7.57,7.9,10.06,4.05,2.5,8.95,3.74,14.72,3.74,6.76,0,12.25-2.02,16.47-6.07,4.21-4.05,6.32-10.17,6.32-18.38v-14.3c-2.99,4.32-7.13,7.93-12.39,10.81-5.27,2.88-11.28,4.32-18.05,4.32-7.76,0-14.86-2-21.29-5.99-6.43-3.99-11.5-9.62-15.22-16.88-3.72-7.26-5.57-15.61-5.57-25.03s1.86-17.57,5.57-24.78c3.71-7.21,8.76-12.75,15.14-16.63,6.38-3.88,13.5-5.82,21.37-5.82,6.87,0,12.92,1.36,18.13,4.08Zm8.98,28.94c-2.22-4.05-5.21-7.15-8.98-9.31-3.77-2.16-7.82-3.24-12.14-3.24s-8.32,1.06-11.97,3.16c-3.66,2.11-6.63,5.18-8.9,9.23-2.27,4.05-3.41,8.84-3.41,14.39s1.14,10.4,3.41,14.55c2.27,4.16,5.26,7.35,8.98,9.56,3.71,2.22,7.68,3.33,11.89,3.33s8.37-1.08,12.14-3.24c3.77-2.16,6.76-5.27,8.98-9.31,2.22-4.05,3.33-8.9,3.33-14.55s-1.11-10.5-3.33-14.55Z"/>
          <path class="cls-1" d="m499.12,91.75c5.43,3.05,9.67,7.54,12.72,13.47,3.05,5.93,4.57,13.06,4.57,21.37v54.06h-23.29v-50.9c0-7.32-1.83-12.95-5.49-16.88-3.66-3.93-8.65-5.9-14.97-5.9s-11.5,1.97-15.22,5.9c-3.72,3.94-5.57,9.56-5.57,16.88v50.9h-23.29V57.57h23.29v42.41c2.99-3.99,6.99-7.12,11.98-9.4,4.99-2.27,10.53-3.41,16.63-3.41,6.99,0,13.19,1.53,18.63,4.57Z"/>
          <path class="cls-1" d="m545.52,176.24c-7.1-3.94-12.67-9.51-16.72-16.72-4.05-7.21-6.07-15.52-6.07-24.95s2.08-17.74,6.24-24.95c4.16-7.21,9.84-12.78,17.05-16.72,7.21-3.93,15.25-5.9,24.12-5.9s16.91,1.97,24.12,5.9c7.21,3.94,12.89,9.51,17.05,16.72,4.16,7.21,6.24,15.53,6.24,24.95s-2.14,17.74-6.4,24.95c-4.27,7.21-10.04,12.78-17.3,16.72-7.26,3.94-15.39,5.9-24.37,5.9s-16.86-1.97-23.95-5.9Zm35.84-17.46c3.71-2.05,6.68-5.13,8.9-9.23,2.22-4.1,3.33-9.09,3.33-14.97,0-8.76-2.3-15.49-6.9-20.21-4.6-4.71-10.23-7.07-16.88-7.07s-12.23,2.36-16.72,7.07c-4.49,4.71-6.74,11.45-6.74,20.21s2.19,15.5,6.57,20.21c4.38,4.71,9.9,7.07,16.55,7.07,4.21,0,8.18-1.02,11.89-3.08Z"/>
          <path class="cls-1" d="m639.67,178.07c-5.99-2.72-10.73-6.4-14.22-11.06-3.49-4.66-5.41-9.81-5.74-15.47h23.45c.44,3.55,2.19,6.49,5.24,8.82,3.05,2.33,6.85,3.49,11.39,3.49s7.9-.89,10.4-2.66c2.5-1.77,3.74-4.05,3.74-6.82,0-2.99-1.53-5.24-4.57-6.74-3.05-1.5-7.9-3.13-14.55-4.91-6.88-1.66-12.5-3.38-16.88-5.16-4.38-1.77-8.15-4.49-11.31-8.15s-4.74-8.59-4.74-14.8c0-5.1,1.47-9.76,4.41-13.97,2.94-4.21,7.15-7.54,12.64-9.98,5.49-2.44,11.95-3.66,19.38-3.66,10.98,0,19.74,2.74,26.28,8.23,6.54,5.49,10.15,12.89,10.81,22.2h-22.29c-.33-3.66-1.86-6.57-4.57-8.73-2.72-2.16-6.35-3.24-10.89-3.24-4.22,0-7.46.78-9.73,2.33-2.27,1.55-3.41,3.72-3.41,6.49,0,3.11,1.55,5.46,4.66,7.07,3.1,1.61,7.93,3.24,14.47,4.91,6.65,1.66,12.14,3.38,16.47,5.16,4.32,1.77,8.07,4.52,11.23,8.23,3.16,3.72,4.79,8.62,4.91,14.72,0,5.32-1.47,10.09-4.41,14.3-2.94,4.22-7.15,7.51-12.64,9.9-5.49,2.38-11.89,3.58-19.21,3.58s-14.3-1.36-20.29-4.08Z"/>
          <path class="cls-1" d="m732.48,107.63v44.58c0,3.11.75,5.35,2.25,6.74,1.5,1.39,4.02,2.08,7.57,2.08h10.81v19.63h-14.64c-19.63,0-29.44-9.54-29.44-28.61v-44.41h-10.98v-19.13h10.98v-22.79h23.45v22.79h20.62v19.13h-20.62Z"/>
          <path class="cls-1" d="m897.64,88.51l-26.94,92.14h-25.12l-16.8-64.37-16.8,64.37h-25.28l-27.11-92.14h23.62l16.3,70.19,17.63-70.19h24.62l17.3,70.02,16.3-70.02h22.29Z"/>
          <path class="cls-1" d="m938.64,91.33c4.82-2.77,10.34-4.16,16.55-4.16v24.45h-6.15c-7.32,0-12.84,1.72-16.55,5.16-3.72,3.44-5.57,9.43-5.57,17.96v45.91h-23.29v-92.14h23.29v14.3c2.99-4.88,6.9-8.7,11.73-11.48Z"/>
          <path class="cls-1" d="m962.42,73.62c-2.72-2.6-4.08-5.85-4.08-9.73s1.36-7.12,4.08-9.73c2.72-2.6,6.12-3.91,10.23-3.91s7.51,1.3,10.23,3.91c2.72,2.61,4.08,5.85,4.08,9.73s-1.36,7.13-4.08,9.73c-2.72,2.61-6.13,3.91-10.23,3.91s-7.51-1.3-10.23-3.91Zm21.71,14.89v92.14h-23.29v-92.14h23.29Z"/>
          <path class="cls-1" d="m1024.21,107.63v44.58c0,3.11.75,5.35,2.25,6.74,1.5,1.39,4.02,2.08,7.57,2.08h10.81v19.63h-14.64c-19.63,0-29.44-9.54-29.44-28.61v-44.41h-10.98v-19.13h10.98v-22.79h23.45v22.79h20.62v19.13h-20.62Z"/>
          <path class="cls-1" d="m1136.65,141.56h-67.36c.55,6.65,2.88,11.87,6.99,15.63,4.1,3.77,9.15,5.66,15.14,5.66,8.65,0,14.8-3.71,18.46-11.14h25.12c-2.66,8.87-7.76,16.16-15.3,21.87-7.54,5.71-16.8,8.57-27.78,8.57-8.87,0-16.83-1.97-23.87-5.9-7.04-3.94-12.53-9.51-16.47-16.72-3.94-7.21-5.91-15.52-5.91-24.95s1.94-17.91,5.82-25.12c3.88-7.21,9.31-12.75,16.3-16.63,6.99-3.88,15.02-5.82,24.12-5.82s16.6,1.89,23.54,5.66c6.93,3.77,12.31,9.12,16.13,16.05,3.83,6.93,5.74,14.89,5.74,23.87,0,3.33-.22,6.32-.67,8.98Zm-23.45-15.63c-.11-5.99-2.27-10.78-6.49-14.39-4.21-3.6-9.37-5.41-15.47-5.41-5.77,0-10.62,1.75-14.55,5.24-3.94,3.49-6.35,8.34-7.24,14.55h43.74Z"/>
        </g>
        <g>
          <path class="cls-1" d="m1151.62,179.17c-.86-.83-1.29-1.86-1.29-3.09s.43-2.26,1.29-3.09c.86-.83,1.96-1.24,3.3-1.24s2.38.41,3.22,1.24c.85.83,1.27,1.86,1.27,3.09s-.42,2.26-1.27,3.09c-.84.83-1.92,1.24-3.22,1.24s-2.44-.41-3.3-1.24Z"/>
          <path class="cls-1" d="m1162.08,157.43c1.18-2.29,2.78-4.05,4.81-5.28,2.02-1.23,4.29-1.85,6.79-1.85,2.18,0,4.09.44,5.73,1.32,1.64.88,2.95,1.99,3.93,3.33v-4.17h7.45v29.26h-7.45v-4.28c-.95,1.37-2.26,2.51-3.93,3.41-1.67.9-3.6,1.35-5.78,1.35-2.46,0-4.71-.63-6.73-1.9s-3.63-3.05-4.81-5.36c-1.18-2.31-1.77-4.96-1.77-7.95s.59-5.58,1.77-7.87Zm20.2,3.35c-.71-1.29-1.66-2.27-2.85-2.96-1.2-.69-2.48-1.03-3.86-1.03s-2.64.33-3.8,1c-1.16.67-2.1,1.65-2.83,2.93-.72,1.29-1.08,2.81-1.08,4.57s.36,3.3,1.08,4.62c.72,1.32,1.67,2.33,2.85,3.04s2.44,1.06,3.78,1.06,2.66-.34,3.86-1.03c1.2-.69,2.15-1.67,2.85-2.96.7-1.29,1.06-2.83,1.06-4.62s-.35-3.33-1.06-4.62Z"/>
          <path class="cls-1" d="m1195.35,146.05c-.86-.83-1.29-1.86-1.29-3.09s.43-2.26,1.29-3.09c.86-.83,1.95-1.24,3.25-1.24s2.38.42,3.25,1.24c.86.83,1.29,1.86,1.29,3.09s-.43,2.26-1.29,3.09c-.86.83-1.95,1.24-3.25,1.24s-2.39-.41-3.25-1.24Zm6.89,4.73v29.26h-7.39v-29.26h7.39Z"/>
        </g>
      </g>
    </g>
  </g>
</svg>