<svg xmlns="http://www.w3.org/2000/svg" width="12" height="12" viewBox="0 0 12 12" fill="none">
  <g clip-path="url(#clip0_189_720)">
    <path d="M4.91823 2.58887C4.94029 3.1819 4.83975 3.7731 4.62288 4.3255C4.40601 4.87789 4.07749 5.3796 3.65787 5.79922C3.23824 6.21885 2.73654 6.54737 2.18414 6.76424C1.63175 6.98111 1.04054 7.08165 0.44751 7.05959C1.04054 7.03752 1.63175 7.13807 2.18414 7.35494C2.73654 7.5718 3.23824 7.90032 3.65787 8.31995C4.07749 8.73958 4.40601 9.24128 4.62288 9.79368C4.83975 10.3461 4.94029 10.9373 4.91823 11.5303C4.89616 10.9373 4.99671 10.3461 5.21358 9.79368C5.43044 9.24128 5.75896 8.73958 6.17859 8.31995C6.59821 7.90032 7.09992 7.5718 7.65231 7.35494C8.20471 7.13807 8.79591 7.03752 9.38894 7.05959C8.79591 7.08165 8.20471 6.98111 7.65231 6.76424C7.09992 6.54737 6.59821 6.21885 6.17859 5.79922C5.75896 5.3796 5.43044 4.87789 5.21358 4.3255C4.99671 3.7731 4.89616 3.1819 4.91823 2.58887Z" fill="white"/>
    <path d="M9.45857 0.553711C9.47013 0.86421 9.41748 1.17375 9.30394 1.46298C9.19039 1.7522 9.01838 2.01488 8.79867 2.23459C8.57897 2.4543 8.31629 2.6263 8.02706 2.73985C7.73784 2.8534 7.4283 2.90604 7.1178 2.89449C7.4283 2.88293 7.73784 2.93558 8.02706 3.04912C8.31629 3.16267 8.57897 3.33468 8.79867 3.55438C9.01838 3.77409 9.19039 4.03677 9.30394 4.326C9.41748 4.61522 9.47013 4.92476 9.45857 5.23526C9.44702 4.92476 9.49967 4.61522 9.61321 4.326C9.72676 4.03677 9.89877 3.77409 10.1185 3.55439C10.3382 3.33468 10.6009 3.16267 10.8901 3.04912C11.1793 2.93558 11.4888 2.88293 11.7993 2.89449C11.4888 2.90604 11.1793 2.8534 10.8901 2.73985C10.6009 2.6263 10.3382 2.45429 10.1185 2.23459C9.89877 2.01488 9.72676 1.7522 9.61321 1.46297C9.49967 1.17375 9.44702 0.864209 9.45857 0.553711Z" fill="white"/>
    <path d="M9.5625 8.25C9.56898 8.4241 9.53946 8.59766 9.47579 8.75984C9.41213 8.92201 9.31568 9.06929 9.19249 9.19249C9.06929 9.31568 8.92201 9.41213 8.75984 9.47579C8.59766 9.53946 8.4241 9.56898 8.25 9.5625C8.4241 9.55602 8.59766 9.58554 8.75984 9.64921C8.92201 9.71287 9.06929 9.80932 9.19249 9.93251C9.31568 10.0557 9.41213 10.203 9.47579 10.3652C9.53946 10.5273 9.56898 10.7009 9.5625 10.875C9.55602 10.7009 9.58554 10.5273 9.64921 10.3652C9.71288 10.203 9.80932 10.0557 9.93251 9.93251C10.0557 9.80932 10.203 9.71288 10.3652 9.64921C10.5273 9.58554 10.7009 9.55602 10.875 9.5625C10.7009 9.56898 10.5273 9.53946 10.3652 9.47579C10.203 9.41213 10.0557 9.31568 9.93251 9.19249C9.80932 9.06929 9.71288 8.92201 9.64921 8.75983C9.58554 8.59766 9.55602 8.4241 9.5625 8.25Z" fill="white"/>
  </g>
  <defs>
    <clipPath id="clip0_189_720">
      <rect width="12" height="12" fill="white"/>
    </clipPath>
  </defs>
</svg>