<svg xmlns="http://www.w3.org/2000/svg" width="68" height="35" viewBox="0 0 68 35" fill="none">
  <path fill-rule="evenodd" clip-rule="evenodd" d="M20.6667 8.93288L28.6667 16.9329L30.1 15.4995L23.5333 8.93288L30.1667 2.29954L28.7333 0.866211L20.6667 8.93288ZM37.8333 15.5662L39.2667 16.9995L47.3333 8.93288L39.3333 0.932878L37.9 2.36621L44.4667 8.93288L37.8333 15.5662ZM60.0895 29.3677C59.8895 29.0997 59.6735 28.9137 59.4415 28.8097C59.2095 28.7017 58.9495 28.6477 58.6615 28.6477C58.0975 28.6477 57.6635 28.8497 57.3595 29.2537C57.0555 29.6577 56.9035 30.2337 56.9035 30.9817C56.9035 31.3777 56.9375 31.7177 57.0055 32.0017C57.0735 32.2817 57.1735 32.5137 57.3055 32.6977C57.4375 32.8777 57.5995 33.0097 57.7915 33.0937C57.9835 33.1777 58.2015 33.2197 58.4455 33.2197C58.7975 33.2197 59.1035 33.1397 59.3635 32.9797C59.6275 32.8197 59.8695 32.5937 60.0895 32.3017V29.3677ZM61.1575 25.1617V33.9997H60.5215C60.3695 33.9997 60.2735 33.9257 60.2335 33.7777L60.1375 33.0397C59.8775 33.3517 59.5815 33.6037 59.2495 33.7957C58.9175 33.9877 58.5335 34.0837 58.0975 34.0837C57.7495 34.0837 57.4335 34.0177 57.1495 33.8857C56.8655 33.7497 56.6235 33.5517 56.4235 33.2917C56.2235 33.0317 56.0695 32.7077 55.9615 32.3197C55.8535 31.9317 55.7995 31.4857 55.7995 30.9817C55.7995 30.5337 55.8595 30.1177 55.9795 29.7337C56.0995 29.3457 56.2715 29.0097 56.4955 28.7257C56.7195 28.4417 56.9935 28.2197 57.3175 28.0597C57.6455 27.8957 58.0135 27.8137 58.4215 27.8137C58.7935 27.8137 59.1115 27.8777 59.3755 28.0057C59.6435 28.1297 59.8815 28.3037 60.0895 28.5277V25.1617H61.1575ZM7.30207 32.3017C7.25407 32.2497 7.19807 32.2237 7.13407 32.2237C7.06607 32.2237 6.99807 32.2537 6.93007 32.3137C6.78207 32.4497 6.63207 32.5677 6.48007 32.6677C6.33207 32.7637 6.17007 32.8437 5.99407 32.9077C5.82207 32.9717 5.63207 33.0197 5.42407 33.0517C5.22007 33.0797 4.99007 33.0937 4.73407 33.0937C4.31407 33.0937 3.92207 33.0177 3.55807 32.8657C3.19807 32.7137 2.88407 32.4937 2.61607 32.2057C2.35207 31.9137 2.14207 31.5577 1.98607 31.1377C1.83407 30.7177 1.75807 30.2397 1.75807 29.7037C1.75807 29.1757 1.83207 28.7017 1.98007 28.2817C2.12807 27.8617 2.33407 27.5057 2.59807 27.2137C2.86607 26.9217 3.18407 26.6997 3.55207 26.5477C3.92007 26.3917 4.32607 26.3137 4.77007 26.3137C5.13807 26.3137 5.44807 26.3537 5.70007 26.4337C5.95207 26.5097 6.16207 26.5957 6.33007 26.6917C6.49807 26.7877 6.63407 26.8757 6.73807 26.9557C6.84207 27.0317 6.93007 27.0697 7.00207 27.0697C7.06607 27.0697 7.11607 27.0577 7.15207 27.0337C7.19207 27.0057 7.22407 26.9717 7.24807 26.9317L7.63207 26.3977C7.27607 26.0617 6.86407 25.7957 6.39607 25.5997C5.92807 25.4037 5.38807 25.3057 4.77607 25.3057C4.15207 25.3057 3.58207 25.4137 3.06607 25.6297C2.55007 25.8417 2.10607 26.1417 1.73407 26.5297C1.36607 26.9177 1.08007 27.3817 0.876068 27.9217C0.672068 28.4617 0.570068 29.0557 0.570068 29.7037C0.570068 30.3517 0.668068 30.9457 0.864068 31.4857C1.06007 32.0257 1.33607 32.4897 1.69207 32.8777C2.04807 33.2617 2.47807 33.5617 2.98207 33.7777C3.48607 33.9897 4.04607 34.0957 4.66207 34.0957C5.37407 34.0957 5.98007 33.9817 6.48007 33.7537C6.98407 33.5257 7.41207 33.2077 7.76407 32.7997L7.30207 32.3017ZM13.4059 33.9997V27.9217H12.3379V32.3977C12.1059 32.6617 11.8519 32.8697 11.5759 33.0217C11.3039 33.1697 11.0099 33.2437 10.6939 33.2437C10.2619 33.2437 9.93994 33.1177 9.72794 32.8657C9.51994 32.6137 9.41594 32.2577 9.41594 31.7977V27.9217H8.34794V31.7977C8.34794 32.1417 8.38994 32.4557 8.47394 32.7397C8.56194 33.0237 8.69194 33.2657 8.86394 33.4657C9.03594 33.6657 9.24794 33.8217 9.49994 33.9337C9.75594 34.0417 10.0499 34.0957 10.3819 34.0957C10.8059 34.0957 11.1819 34.0077 11.5099 33.8317C11.8379 33.6517 12.1339 33.4157 12.3979 33.1237L12.4819 33.7777C12.5219 33.9257 12.6179 33.9997 12.7699 33.9997H13.4059ZM18.2794 28.9237C18.2313 29.0117 18.1574 29.0557 18.0574 29.0557C17.9974 29.0557 17.9293 29.0337 17.8533 28.9897C17.7773 28.9457 17.6833 28.8977 17.5714 28.8457C17.4634 28.7897 17.3333 28.7397 17.1813 28.6957C17.0293 28.6477 16.8493 28.6237 16.6413 28.6237C16.4613 28.6237 16.2993 28.6477 16.1553 28.6957C16.0113 28.7397 15.8873 28.8017 15.7833 28.8817C15.6833 28.9617 15.6053 29.0557 15.5493 29.1637C15.4973 29.2677 15.4713 29.3817 15.4713 29.5057C15.4713 29.6617 15.5153 29.7917 15.6033 29.8957C15.6953 29.9997 15.8153 30.0897 15.9633 30.1657C16.1113 30.2417 16.2793 30.3097 16.4673 30.3697C16.6553 30.4257 16.8474 30.4877 17.0434 30.5557C17.2434 30.6197 17.4373 30.6917 17.6253 30.7717C17.8133 30.8517 17.9813 30.9517 18.1293 31.0717C18.2773 31.1917 18.3953 31.3397 18.4833 31.5157C18.5753 31.6877 18.6213 31.8957 18.6213 32.1397C18.6213 32.4197 18.5714 32.6797 18.4713 32.9197C18.3713 33.1557 18.2234 33.3617 18.0273 33.5377C17.8314 33.7097 17.5914 33.8457 17.3074 33.9457C17.0233 34.0457 16.6954 34.0957 16.3233 34.0957C15.8994 34.0957 15.5153 34.0277 15.1713 33.8917C14.8273 33.7517 14.5353 33.5737 14.2953 33.3577L14.5473 32.9497C14.5793 32.8977 14.6173 32.8577 14.6613 32.8297C14.7053 32.8017 14.7613 32.7877 14.8293 32.7877C14.9014 32.7877 14.9773 32.8157 15.0573 32.8717C15.1373 32.9277 15.2333 32.9897 15.3453 33.0577C15.4613 33.1257 15.6013 33.1877 15.7653 33.2437C15.9293 33.2997 16.1333 33.3277 16.3773 33.3277C16.5854 33.3277 16.7673 33.3017 16.9233 33.2497C17.0793 33.1937 17.2093 33.1197 17.3133 33.0277C17.4173 32.9357 17.4933 32.8297 17.5413 32.7097C17.5933 32.5897 17.6194 32.4617 17.6194 32.3257C17.6194 32.1577 17.5733 32.0197 17.4813 31.9117C17.3934 31.7997 17.2754 31.7057 17.1273 31.6297C16.9793 31.5497 16.8093 31.4817 16.6173 31.4257L16.0353 31.2397C15.8393 31.1757 15.6453 31.1037 15.4533 31.0237C15.2653 30.9397 15.0973 30.8357 14.9493 30.7117C14.8013 30.5877 14.6813 30.4357 14.5893 30.2557C14.5013 30.0717 14.4573 29.8497 14.4573 29.5897C14.4573 29.3577 14.5053 29.1357 14.6013 28.9237C14.6973 28.7077 14.8373 28.5197 15.0213 28.3597C15.2053 28.1957 15.4313 28.0657 15.6993 27.9697C15.9673 27.8737 16.2733 27.8257 16.6173 27.8257C17.0173 27.8257 17.3753 27.8897 17.6913 28.0177C18.0113 28.1417 18.2873 28.3137 18.5194 28.5337L18.2794 28.9237ZM20.3268 33.6937C20.5868 33.9617 20.9568 34.0957 21.4368 34.0957C21.7128 34.0957 21.9808 34.0477 22.2408 33.9517C22.5008 33.8517 22.7228 33.7157 22.9068 33.5437L22.5948 33.0337C22.5508 32.9657 22.5008 32.9317 22.4448 32.9317C22.4128 32.9317 22.3748 32.9477 22.3308 32.9797C22.2908 33.0077 22.2408 33.0397 22.1808 33.0757C22.1208 33.1117 22.0488 33.1457 21.9648 33.1777C21.8848 33.2057 21.7888 33.2197 21.6768 33.2197C21.4808 33.2197 21.3208 33.1577 21.1968 33.0337C21.0728 32.9097 21.0108 32.7197 21.0108 32.4637V28.8157H22.7688V28.0417H21.0108V25.9477H20.4708C20.4028 25.9477 20.3468 25.9677 20.3028 26.0077C20.2628 26.0437 20.2368 26.0917 20.2248 26.1517L19.9788 28.0297L18.9828 28.1557V28.5817C18.9828 28.6617 19.0048 28.7217 19.0488 28.7617C19.0928 28.7977 19.1468 28.8157 19.2108 28.8157H19.9428V32.5357C19.9428 33.0397 20.0708 33.4257 20.3268 33.6937ZM26.0384 27.8257C26.4824 27.8257 26.8824 27.8997 27.2384 28.0477C27.5944 28.1957 27.8984 28.4057 28.1504 28.6777C28.4024 28.9497 28.5944 29.2797 28.7264 29.6677C28.8624 30.0517 28.9304 30.4817 28.9304 30.9577C28.9304 31.4377 28.8624 31.8697 28.7264 32.2537C28.5944 32.6377 28.4024 32.9657 28.1504 33.2377C27.8984 33.5097 27.5944 33.7197 27.2384 33.8677C26.8824 34.0117 26.4824 34.0837 26.0384 34.0837C25.5904 34.0837 25.1864 34.0117 24.8264 33.8677C24.4704 33.7197 24.1664 33.5097 23.9144 33.2377C23.6624 32.9657 23.4684 32.6377 23.3324 32.2537C23.2004 31.8697 23.1344 31.4377 23.1344 30.9577C23.1344 30.4817 23.2004 30.0517 23.3324 29.6677C23.4684 29.2797 23.6624 28.9497 23.9144 28.6777C24.1664 28.4057 24.4704 28.1957 24.8264 28.0477C25.1864 27.8997 25.5904 27.8257 26.0384 27.8257ZM26.0384 33.2497C26.6384 33.2497 27.0864 33.0497 27.3824 32.6497C27.6784 32.2457 27.8264 31.6837 27.8264 30.9637C27.8264 30.2397 27.6784 29.6757 27.3824 29.2717C27.0864 28.8677 26.6384 28.6657 26.0384 28.6657C25.7344 28.6657 25.4684 28.7177 25.2404 28.8217C25.0164 28.9257 24.8284 29.0757 24.6764 29.2717C24.5284 29.4677 24.4164 29.7097 24.3404 29.9977C24.2684 30.2817 24.2324 30.6037 24.2324 30.9637C24.2324 31.6837 24.3804 32.2457 24.6764 32.6497C24.9764 33.0497 25.4304 33.2497 26.0384 33.2497ZM29.925 27.9217V33.9997H30.999V29.4697C31.187 29.2257 31.393 29.0337 31.617 28.8937C31.841 28.7497 32.085 28.6777 32.349 28.6777C32.725 28.6777 33.011 28.7977 33.207 29.0377C33.403 29.2777 33.501 29.6417 33.501 30.1297V33.9997H34.575V30.1297C34.575 29.8897 34.609 29.6797 34.677 29.4997C34.749 29.3157 34.845 29.1637 34.965 29.0437C35.085 28.9237 35.223 28.8337 35.379 28.7737C35.539 28.7097 35.707 28.6777 35.883 28.6777C36.275 28.6777 36.575 28.8017 36.783 29.0497C36.991 29.2937 37.095 29.6537 37.095 30.1297V33.9997H38.169V30.1297C38.169 29.7617 38.123 29.4357 38.031 29.1517C37.939 28.8637 37.805 28.6217 37.629 28.4257C37.457 28.2297 37.245 28.0817 36.993 27.9817C36.745 27.8777 36.461 27.8257 36.141 27.8257C35.941 27.8257 35.743 27.8497 35.547 27.8977C35.355 27.9457 35.173 28.0217 35.001 28.1257C34.829 28.2297 34.673 28.3617 34.533 28.5217C34.397 28.6817 34.285 28.8717 34.197 29.0917C34.085 28.7037 33.901 28.3957 33.645 28.1677C33.393 27.9397 33.063 27.8257 32.655 27.8257C32.287 27.8257 31.963 27.9137 31.683 28.0897C31.403 28.2657 31.151 28.4917 30.927 28.7677L30.849 28.1437C30.813 27.9957 30.719 27.9217 30.567 27.9217H29.925ZM48.4305 32.2237C48.4945 32.2237 48.5505 32.2497 48.5985 32.3017L49.0605 32.7997C48.7085 33.2077 48.2805 33.5257 47.7765 33.7537C47.2765 33.9817 46.6705 34.0957 45.9585 34.0957C45.3425 34.0957 44.7825 33.9897 44.2785 33.7777C43.7745 33.5617 43.3445 33.2617 42.9885 32.8777C42.6325 32.4897 42.3565 32.0257 42.1605 31.4857C41.9645 30.9457 41.8665 30.3517 41.8665 29.7037C41.8665 29.0557 41.9685 28.4617 42.1725 27.9217C42.3765 27.3817 42.6625 26.9177 43.0305 26.5297C43.4025 26.1417 43.8465 25.8417 44.3625 25.6297C44.8785 25.4137 45.4485 25.3057 46.0725 25.3057C46.6845 25.3057 47.2245 25.4037 47.6925 25.5997C48.1605 25.7957 48.5725 26.0617 48.9285 26.3977L48.5445 26.9317C48.5205 26.9717 48.4885 27.0057 48.4485 27.0337C48.4125 27.0577 48.3625 27.0697 48.2985 27.0697C48.2265 27.0697 48.1385 27.0317 48.0345 26.9557C47.9305 26.8757 47.7945 26.7877 47.6265 26.6917C47.4585 26.5957 47.2485 26.5097 46.9965 26.4337C46.7445 26.3537 46.4345 26.3137 46.0665 26.3137C45.6225 26.3137 45.2165 26.3917 44.8485 26.5477C44.4805 26.6997 44.1625 26.9217 43.8945 27.2137C43.6305 27.5057 43.4245 27.8617 43.2765 28.2817C43.1285 28.7017 43.0545 29.1757 43.0545 29.7037C43.0545 30.2397 43.1305 30.7177 43.2825 31.1377C43.4385 31.5577 43.6485 31.9137 43.9125 32.2057C44.1805 32.4937 44.4945 32.7137 44.8545 32.8657C45.2185 33.0177 45.6105 33.0937 46.0305 33.0937C46.2865 33.0937 46.5165 33.0797 46.7205 33.0517C46.9285 33.0197 47.1185 32.9717 47.2905 32.9077C47.4665 32.8437 47.6285 32.7637 47.7765 32.6677C47.9285 32.5677 48.0785 32.4497 48.2265 32.3137C48.2945 32.2537 48.3625 32.2237 48.4305 32.2237ZM53.4429 28.0477C53.0869 27.8997 52.6869 27.8257 52.2429 27.8257C51.7949 27.8257 51.3909 27.8997 51.0309 28.0477C50.6749 28.1957 50.3709 28.4057 50.1189 28.6777C49.8669 28.9497 49.6729 29.2797 49.5369 29.6677C49.4049 30.0517 49.3389 30.4817 49.3389 30.9577C49.3389 31.4377 49.4049 31.8697 49.5369 32.2537C49.6729 32.6377 49.8669 32.9657 50.1189 33.2377C50.3709 33.5097 50.6749 33.7197 51.0309 33.8677C51.3909 34.0117 51.7949 34.0837 52.2429 34.0837C52.6869 34.0837 53.0869 34.0117 53.4429 33.8677C53.7989 33.7197 54.1029 33.5097 54.3549 33.2377C54.6069 32.9657 54.7989 32.6377 54.9309 32.2537C55.0669 31.8697 55.1349 31.4377 55.1349 30.9577C55.1349 30.4817 55.0669 30.0517 54.9309 29.6677C54.7989 29.2797 54.6069 28.9497 54.3549 28.6777C54.1029 28.4057 53.7989 28.1957 53.4429 28.0477ZM53.5869 32.6497C53.2909 33.0497 52.8429 33.2497 52.2429 33.2497C51.6349 33.2497 51.1809 33.0497 50.8809 32.6497C50.5849 32.2457 50.4369 31.6837 50.4369 30.9637C50.4369 30.6037 50.4729 30.2817 50.5449 29.9977C50.6209 29.7097 50.7329 29.4677 50.8809 29.2717C51.0329 29.0757 51.2209 28.9257 51.4449 28.8217C51.6729 28.7177 51.9389 28.6657 52.2429 28.6657C52.8429 28.6657 53.2909 28.8677 53.5869 29.2717C53.8829 29.6757 54.0309 30.2397 54.0309 30.9637C54.0309 31.6837 53.8829 32.2457 53.5869 32.6497ZM66.4444 29.6197C66.5163 29.8237 66.5524 30.0497 66.5524 30.2977H63.2284C63.3004 29.7697 63.4843 29.3577 63.7803 29.0617C64.0803 28.7617 64.4864 28.6117 64.9984 28.6117C65.2424 28.6117 65.4604 28.6537 65.6524 28.7377C65.8444 28.8177 66.0063 28.9337 66.1384 29.0857C66.2744 29.2337 66.3764 29.4117 66.4444 29.6197ZM66.9424 33.5677C67.1264 33.4477 67.2843 33.3077 67.4164 33.1477L67.1163 32.7577C67.0684 32.6897 67.0004 32.6557 66.9124 32.6557C66.8444 32.6557 66.7624 32.6877 66.6664 32.7517C66.5743 32.8117 66.4584 32.8777 66.3184 32.9497C66.1784 33.0217 66.0104 33.0897 65.8144 33.1537C65.6224 33.2137 65.3923 33.2437 65.1244 33.2437C64.8363 33.2437 64.5764 33.1977 64.3444 33.1057C64.1124 33.0097 63.9123 32.8677 63.7444 32.6797C63.5764 32.4877 63.4444 32.2497 63.3484 31.9657C63.2564 31.6817 63.2044 31.3477 63.1924 30.9637H67.2543C67.3543 30.9637 67.4223 30.9357 67.4584 30.8797C67.4944 30.8237 67.5124 30.7117 67.5124 30.5437C67.5124 30.1117 67.4483 29.7277 67.3204 29.3917C67.1924 29.0517 67.0144 28.7677 66.7864 28.5397C66.5624 28.3077 66.2943 28.1317 65.9824 28.0117C65.6744 27.8877 65.3383 27.8257 64.9743 27.8257C64.5344 27.8257 64.1384 27.9037 63.7864 28.0597C63.4343 28.2117 63.1363 28.4237 62.8923 28.6957C62.6483 28.9637 62.4604 29.2817 62.3284 29.6497C62.2004 30.0177 62.1364 30.4137 62.1364 30.8377C62.1364 31.3617 62.2084 31.8257 62.3524 32.2297C62.4964 32.6337 62.6964 32.9737 62.9524 33.2497C63.2123 33.5217 63.5183 33.7297 63.8703 33.8737C64.2263 34.0137 64.6144 34.0837 65.0344 34.0837C65.2544 34.0837 65.4763 34.0637 65.7003 34.0237C65.9243 33.9877 66.1404 33.9317 66.3484 33.8557C66.5603 33.7797 66.7584 33.6837 66.9424 33.5677Z" fill="black"/>
</svg>