<svg xmlns="http://www.w3.org/2000/svg" width="33" height="34" viewBox="0 0 33 34" fill="none">
  <g clip-path="url(#clip0_189_551)">
    <path d="M2.37207 17.2575C2.37207 22.7832 5.58338 27.5585 10.24 29.8214L3.58073 11.5762C2.80613 13.3123 2.37207 15.2337 2.37207 17.2575Z" fill="#0A2540"/>
    <path d="M25.7568 16.5529C25.7568 14.8276 25.1371 13.6328 24.6055 12.7028C23.8978 11.5529 23.2345 10.5791 23.2345 9.42919C23.2345 8.14592 24.2078 6.95136 25.5788 6.95136C25.6407 6.95136 25.6994 6.95907 25.7597 6.96252C23.276 4.68711 19.9669 3.29785 16.3324 3.29785C11.4553 3.29785 7.16443 5.80011 4.66821 9.59016C4.99575 9.59999 5.30442 9.6069 5.56661 9.6069C7.02682 9.6069 9.28715 9.42972 9.28715 9.42972C10.0397 9.38536 10.1284 10.4907 9.37667 10.5796C9.37667 10.5796 8.62039 10.6686 7.77885 10.7127L12.8627 25.8339L15.9178 16.6714L13.7427 10.7122C12.991 10.6681 12.2788 10.5791 12.2788 10.5791C11.5265 10.535 11.6147 9.38483 12.367 9.42919C12.367 9.42919 14.6725 9.60636 16.0442 9.60636C17.5042 9.60636 19.7648 9.42919 19.7648 9.42919C20.5178 9.38483 20.6063 10.4901 19.8543 10.5791C19.8543 10.5791 19.0964 10.6681 18.2565 10.7122L23.3015 25.7189L24.694 21.0658C25.2975 19.1349 25.7568 17.748 25.7568 16.5529Z" fill="#0A2540"/>
    <path d="M16.5775 18.4795L12.3889 30.6505C13.6395 31.0182 14.9622 31.2192 16.3326 31.2192C17.9583 31.2192 19.5173 30.9382 20.9685 30.4279C20.9311 30.3681 20.8971 30.3047 20.8692 30.2356L16.5775 18.4795Z" fill="#0A2540"/>
    <path d="M28.5824 10.5605C28.6424 11.0052 28.6764 11.4826 28.6764 11.996C28.6764 13.4126 28.4118 15.0051 27.6149 16.9963L23.3506 29.3251C27.5009 26.9049 30.2925 22.4086 30.2925 17.2585C30.2928 14.8314 29.6728 12.5491 28.5824 10.5605Z" fill="#0A2540"/>
    <path d="M16.3327 0.985352C7.35965 0.985352 0.059082 8.28521 0.059082 17.258C0.059082 26.2319 7.35965 33.5315 16.3327 33.5315C25.3054 33.5315 32.6071 26.2319 32.6071 17.258C32.6068 8.28521 25.3054 0.985352 16.3327 0.985352ZM16.3327 32.7856C7.77112 32.7856 0.805263 25.8199 0.805263 17.258C0.805263 8.69667 7.77086 1.73151 16.3327 1.73151C24.894 1.73151 31.8593 8.69667 31.8593 17.258C31.8593 25.8199 24.894 32.7856 16.3327 32.7856Z" fill="#0A2540"/>
  </g>
  <defs>
    <clipPath id="clip0_189_551">
      <rect width="32.5461" height="32.5461" fill="white" transform="translate(0.059082 0.985352)"/>
    </clipPath>
  </defs>
</svg>